<svg width="30" height="31" viewBox="0 0 30 31" fill="none" xmlns="http://www.w3.org/2000/svg">
<path d="M26.9827 23.8326V17.1702C26.9818 16.6934 26.792 16.2364 26.4548 15.8992C26.1177 15.562 25.6606 15.3722 25.1838 15.3714H15.59V8.13602C16.4794 7.98567 17.28 7.50666 17.8329 6.79392C18.3859 6.08118 18.6509 5.18672 18.5755 4.28779C18.5 3.38887 18.0896 2.55109 17.4256 1.94047C16.7616 1.32985 15.8925 0.990967 14.9904 0.990967C14.0883 0.990967 13.2191 1.32985 12.5551 1.94047C11.8911 2.55109 11.4807 3.38887 11.4053 4.28779C11.3298 5.18672 11.5949 6.08118 12.1478 6.79392C12.7008 7.50666 13.5013 7.98567 14.3908 8.13602V15.3847H4.79692C4.32011 15.3856 3.86308 15.5754 3.52592 15.9125C3.18876 16.2497 2.99896 16.7067 2.99808 17.1835V23.8459C2.10861 23.9963 1.30808 24.4753 0.755135 25.188C0.202186 25.9008 -0.0628288 26.7952 0.0126091 27.6941C0.088047 28.5931 0.498432 29.4308 1.16244 30.0415C1.82644 30.6521 2.69561 30.991 3.59769 30.991C4.49978 30.991 5.36894 30.6521 6.03295 30.0415C6.69695 29.4308 7.10734 28.5931 7.18278 27.6941C7.25822 26.7952 6.9932 25.9008 6.44025 25.188C5.8873 24.4753 5.08677 23.9963 4.19731 23.8459V17.1835C4.19731 17.0245 4.26048 16.872 4.37293 16.7595C4.48538 16.6471 4.63789 16.5839 4.79692 16.5839H14.3908V23.8326C13.5013 23.9829 12.7008 24.4619 12.1478 25.1747C11.5949 25.8874 11.3298 26.7819 11.4053 27.6808C11.4807 28.5797 11.8911 29.4175 12.5551 30.0281C13.2191 30.6388 14.0883 30.9776 14.9904 30.9776C15.8925 30.9776 16.7616 30.6388 17.4256 30.0281C18.0896 29.4175 18.5 28.5797 18.5755 27.6808C18.6509 26.7819 18.3859 25.8874 17.8329 25.1747C17.28 24.4619 16.4794 23.9829 15.59 23.8326V16.5839H25.1838C25.3428 16.5839 25.4954 16.6471 25.6078 16.7595C25.7203 16.872 25.7834 17.0245 25.7834 17.1835V23.8459C24.894 23.9963 24.0934 24.4753 23.5405 25.188C22.9875 25.9008 22.7225 26.7952 22.798 27.6941C22.8734 28.5931 23.2838 29.4308 23.9478 30.0415C24.6118 30.6521 25.481 30.991 26.383 30.991C27.2851 30.991 28.1543 30.6521 28.8183 30.0415C29.4823 29.4308 29.8927 28.5931 29.9681 27.6941C30.0436 26.7952 29.7785 25.9008 29.2256 25.188C28.6726 24.4753 27.8721 23.9963 26.9827 23.8459V23.8326ZM5.99615 27.377C5.99615 27.8513 5.85548 28.3151 5.59194 28.7095C5.32839 29.1039 4.9538 29.4113 4.51554 29.5929C4.07728 29.7744 3.59503 29.8219 3.12978 29.7294C2.66452 29.6368 2.23716 29.4084 1.90173 29.0729C1.5663 28.7375 1.33787 28.3102 1.24532 27.8449C1.15278 27.3796 1.20027 26.8974 1.38181 26.4591C1.56334 26.0209 1.87076 25.6463 2.26518 25.3827C2.65961 25.1192 3.12332 24.9785 3.59769 24.9785C4.23353 24.9794 4.84308 25.2324 5.29269 25.682C5.74229 26.1316 5.99527 26.7411 5.99615 27.377ZM17.3888 27.377C17.3888 27.8513 17.2482 28.3151 16.9846 28.7095C16.7211 29.1039 16.3465 29.4113 15.9082 29.5929C15.47 29.7744 14.9877 29.8219 14.5225 29.7294C14.0572 29.6368 13.6298 29.4084 13.2944 29.0729C12.959 28.7375 12.7305 28.3102 12.638 27.8449C12.5455 27.3796 12.5929 26.8974 12.7745 26.4591C12.956 26.0209 13.2634 25.6463 13.6579 25.3827C14.0523 25.1192 14.516 24.9785 14.9904 24.9785C15.6262 24.9794 16.2358 25.2324 16.6854 25.682C17.135 26.1316 17.3879 26.7411 17.3888 27.377ZM14.9904 6.99009C14.516 6.99009 14.0523 6.84942 13.6579 6.58588C13.2634 6.32233 12.956 5.94774 12.7745 5.50948C12.5929 5.07122 12.5455 4.58897 12.638 4.12372C12.7305 3.65846 12.959 3.2311 13.2944 2.89567C13.6298 2.56024 14.0572 2.33181 14.5225 2.23926C14.9877 2.14672 15.47 2.19421 15.9082 2.37575C16.3465 2.55728 16.7211 2.8647 16.9846 3.25912C17.2482 3.65354 17.3888 4.11726 17.3888 4.59163C17.3879 5.22747 17.135 5.83702 16.6854 6.28662C16.2358 6.73623 15.6262 6.98921 14.9904 6.99009ZM26.383 29.7754C25.9087 29.7754 25.445 29.6348 25.0505 29.3712C24.6561 29.1077 24.3487 28.7331 24.1672 28.2948C23.9856 27.8566 23.9381 27.3743 24.0307 26.9091C24.1232 26.4438 24.3516 26.0164 24.6871 25.681C25.0225 25.3456 25.4499 25.1171 25.9151 25.0246C26.3804 24.9321 26.8626 24.9796 27.3009 25.1611C27.7392 25.3426 28.1137 25.65 28.3773 26.0445C28.6408 26.4389 28.7815 26.9026 28.7815 27.377C28.7806 28.0128 28.5276 28.6224 28.078 29.072C27.6284 29.5216 27.0189 29.7746 26.383 29.7754Z" fill="white" fill-opacity="0.9"/>
</svg>
